<?xml version="1.0" encoding="utf-8"?>
<!-- Generator: Adobe Illustrator 26.0.2, SVG Export Plug-In . SVG Version: 6.00 Build 0)  -->
<svg version="1.1" id="Layer_1" xmlns="http://www.w3.org/2000/svg" xmlns:xlink="http://www.w3.org/1999/xlink" x="0px" y="0px"
	 viewBox="0 0 75.32 44.97" style="enable-background:new 0 0 75.32 44.97;" xml:space="preserve">
<style type="text/css">
	.st0{fill:#CB007B;}
</style>
<g>
	<path d="M8.72,24.06h5.23c0,0-0.14-10.77,0-10.7c0.14,0.07,2.52,0,2.52,0v-3.01h-2.6c0,0-0.28-1.66,1.42-1.71s1.28,0,1.28,0
		l0.05-3.63l-3.61,0.08c-2.55,0.07-4.41,1.3-4.33,5.25l-1.89,0.02v3.09l1.9,0.03L8.72,24.06z"/>
	<path d="M17.06,10.35h5.65l1.68,2.74l1.54-2.74h5.67l-4.36,6.61l4.72,7.02h-5.65l-2.06-3.1l-1.79,3.1c0,0-5.63-0.06-5.65,0
		c-0.02,0.06,4.67-7.04,4.67-7.04L17.06,10.35z"/>
	<path d="M45.91,18.63c0.22-4.18,0.22-7.22-2.86-8.09c-2.46-1-4.86-0.94-7.22-0.19c-2.17,0.44-3.39,1.94-3.6,4.55h4.78
		c0.19-1.11,0.89-1.66,2.05-1.67c2.4,0.18,2.24,2.08,0.02,2.43c-6.61,1.14-7.31,2.24-7.31,4.88c0,2.07,1.09,3.93,5.27,3.9
		c1.81-0.16,3.13-0.75,3.76-1.94l0.5,1.54l5.58-0.05C46.14,23.97,45.92,22.14,45.91,18.63z M37.19,21.08
		c-0.39-0.26-0.91-0.78-0.52-1.43c0.91-1.3,2.86-0.78,4.02-1.95C41.73,20.04,39.38,21.85,37.19,21.08z"/>
	<path d="M38.35,28.41c-0.24-0.08-0.86,0.1-0.86,0.1s1.34-2.3,1.24-2.46c-0.1-0.16-0.73-0.02-0.82,0c0,0,0.1-0.02-1.04,1.89
		s-1.55,2.8-1.55,3.49c0,0.68,0.98,0.54,1.6,0.26c0.62-0.28,1.14-0.83,1.61-1.66C39.01,29.2,38.6,28.5,38.35,28.41z M36.54,31.59
		c-0.11,0.11-0.5,0.06-0.55-0.33c-0.02-0.15,0.03-0.29,0.1-0.42c0.33-0.55,0.67-1.15,1.09-1.69c0.44-0.57,1.16-0.51,0.71,0.44
		C37.54,30.3,37.28,30.69,36.54,31.59z"/>
	<path d="M42.2,28.35c0,0-0.65-0.02-0.72,0c-0.07,0.02-0.13,0.52-1.08,1.94c-0.95,1.42-1.34,1.13-1.37,1.09c-0.1-0.11,0-0.34,0-0.34
		s0.98-1.63,1.37-2.22c0.39-0.59-0.16-0.42-0.26-0.47c0,0,0,0-0.08-0.01c-0.08-0.01-0.37,0.07-0.42,0.15
		c-0.05,0.08-0.18,0.57-0.7,1.27c-0.52,0.7-0.82,1.42-0.68,1.84c0.13,0.42,0.86,0.26,0.91,0.24c0.05-0.02,0.44-0.27,0.39-0.23
		c-0.05,0.04-0.06,0.44-1.06,1.48c-1.02,1.07-1.58,0.6-1.58,0.6c-0.04-0.16-0.03-0.26,0.03-0.31c0.13-0.23-0.03-0.51-0.29-0.51
		c-0.26,0-0.61,0.11-0.34,0.77c0.26,0.44,0.62,0.41,1.5,0.31c0.88-0.1,1.79-0.96,2.27-1.68c0.47-0.72,1.61-2.67,2.01-3.24
		C42.48,28.48,42.2,28.35,42.2,28.35z"/>
	<path d="M69.94,28.62c0,0-0.34,1.39-0.94,2.05c-0.6,0.66-0.74,0.89-1.17,0.83c-0.42-0.06-0.52-0.17-0.46-0.83
		c0.06-0.66,0.24-1.03,0.24-1.08s0.14-0.49-0.3-0.59c-0.44-0.1-0.34-0.25-0.98,0.9c-0.65,1.15-1.17,1.94-1.77,2.32
		c-0.6,0.38-0.7,0.45-0.73,0.39c-0.03-0.06,0.74-1.42,1.35-2.08c0.6-0.66,1.33-1.67,1.77-1.88c0.44-0.21,0.94-0.14,0.94-0.14
		s0.6-0.41-0.14-0.67c-0.74-0.27-1.24-0.6-1.98,0.25c-0.74,0.86-1.72,1.71-2.45,2.97c-0.28,0.47-0.45,0.78-0.55,0.97
		c-0.14,0.26-0.37,0.45-0.66,0.53c-0.35,0.1-0.75,0.1-0.58-0.45c0.29-0.95,1.6-2.67,1.6-2.67l0.7-0.96c0,0,0.29-0.55-0.04-0.81
		c-0.32-0.26-0.59-0.19-1.09,0.4c-0.5,0.59-1.45,2.02-1.71,2.44c-0.26,0.42-0.55,1.19-0.59,1.27c-0.05,0.08-0.63,0.74-1.17,0.33
		c-0.54-0.4-0.86-0.96-0.5-1.31c0.36-0.34,2-2.2,2-2.2s0.36-0.3-0.06-0.51c-0.42-0.21-0.55-0.61-1.26,0.34
		c-0.71,0.95-0.87,1.17-0.95,1.18c-0.08,0.01-0.12-0.21-0.01-0.95s0.27-1.36-0.45-1.39c-0.73-0.04-0.69-0.14-1.32,1.25
		c-0.63,1.39-1.14,2.31-1.55,2.76c-0.4,0.45-0.4,0.49-0.71,0.44c-0.31-0.05-0.54-0.12,0.02-1.26c0.56-1.14,1.22-2.38,1.22-2.38
		s0.39-0.58-0.28-0.7c-0.67-0.12-0.51-0.57-1.51,0.65c-1,1.22-2.94,3.43-3.44,3.86c-0.5,0.42-0.88,0.65-0.88,0.65l0.25-0.69
		c0,0,2-2.66,2.16-2.87c0.15-0.2,0.52-0.65,0.01-0.86c-0.51-0.2-0.64-0.17-1.24-0.04c-0.68,0.15-1.41,0.29-1.83,0.18
		c-0.44-0.11-0.59-0.06-0.81-0.24c-0.22-0.18-0.03-0.4,0.46-1.38c0.49-0.98,1.88-3.51,3.01-5.21c1.14-1.69,1.3-2.04,1.3-2.04
		s0.26-0.27,0.06-0.5c-0.2-0.23-0.25-0.26-0.25-0.26c0.01-0.03-0.57-0.71-1.2,0.28c-0.63,0.99-3.08,5.32-3.42,6.03
		c-0.34,0.71-1.4,2.75-1.54,2.85c-0.13,0.09-0.34,0.26-0.49,0.15c-0.15-0.11-0.58-0.22-0.82,0.15c-0.24,0.37-0.43,0.53-0.12,0.85
		c0.31,0.32,0.65,0.55,0.47,0.85c-0.18,0.3-1.8,3.48-1.8,3.48l-1.03,2.08c0,0-1.03,2.63-1.12,3.18c-0.1,0.55-0.28,1.6,0.28,1.83
		c0.56,0.22,1.1,0.25,1.81-1c0.72-1.25,1.98-3.46,2.54-5.09c0.56-1.63,1.43-4.74,1.43-4.74l2.35-0.11c0,0,0.01,0.08-0.49,0.79
		c-0.51,0.7-1.69,2.28-1,3.06c0.69,0.79,2.37-0.44,3.32-1.45c0.94-1.01,1.14-1.55,1.42-1.43c0.28,0.11-0.32,1.14,0,1.59
		c0.32,0.45,1.15,1.17,2.05-0.03c0.9-1.19,1.49-2.82,1.49-2.82s0.25-0.46,0.24,0.07c-0.01,0.53,0,1.84,0,1.84l-1.46,2.3
		c0,0-0.28,0.41-0.07,0.55c0.21,0.14,0.44,0.17,1.24-0.96c0.8-1.12,0.84-0.79,0.84-0.79s0.67,0.97,1.1,1.03c0,0,0.63,0.2,1.18-0.38
		c0.55-0.58,0.53-0.44,0.53-0.44s0.01,0.53,0.48,0.73s1.05,0.06,1.45-0.18c0.39-0.24,0.27-0.06,0.27-0.06s0.03,0.31,0.42,0.45
		c0.39,0.14,0.89,0.53,1.7-0.17c0.81-0.7,0.93-0.79,1.26-1.47c0.34-0.69,0.52-0.62,0.6-0.43c0.07,0.16,0.15,0.31,0.26,0.44
		c0.28,0.33,0.8,0.79,1.34,0.6C69.03,32,70,31.5,70.32,29.76C70.64,28.01,69.94,28.62,69.94,28.62z M43.4,37.44
		c0.62-1.48,0.99-2.11,1.7-3.65c1.11-2.39,1.85-3.96,0.46,0.21c-0.42,1.24-1.23,2.35-1.87,3.55C43.39,38.13,43.24,37.82,43.4,37.44z
		"/>
	<path class="st0" d="M63.99,27.47c-0.02-0.07-0.51-0.17,0.15-1.04c0.67-0.87,0.94-0.23,0.94-0.23s0.32,0.39-0.07,0.76
		c-0.39,0.37-0.46,0.67-0.73,0.6C63.99,27.47,63.99,27.47,63.99,27.47z"/>
</g>
</svg>
