<?xml version="1.0" encoding="utf-8"?>
<!-- Generator: Adobe Illustrator 26.0.2, SVG Export Plug-In . SVG Version: 6.00 Build 0)  -->
<svg version="1.1" id="Layer_1" xmlns="http://www.w3.org/2000/svg" xmlns:xlink="http://www.w3.org/1999/xlink" x="0px" y="0px"
	 viewBox="0 0 174.4 117.16" style="enable-background:new 0 0 174.4 117.16;" xml:space="preserve">
<style type="text/css">
	.st0{fill:#FFFFFF;}
	.st1{fill:#CB007B;}
</style>
<g>
	<path class="st0" d="M105.13,102.05c-0.17,0.22-0.33,0.43-0.49,0.65c-0.14,0.2-0.31,0.36-0.51,0.5c-0.27,0.19-0.54,0.39-0.81,0.59
		c-0.1,0.08-0.22,0.12-0.35,0.15c-0.56,0.13-1.12,0.27-1.67,0.41c-0.25,0.06-0.51,0.06-0.76,0.06c-2.72,0-5.43,0-8.15,0
		c-3.76,0-7.51,0-11.27,0c-0.39,0-0.76-0.04-1.13-0.15c-0.43-0.13-0.86-0.23-1.3-0.32c-0.18-0.04-0.33-0.11-0.47-0.21
		c-0.05-0.04-0.1-0.09-0.15-0.12c-0.81-0.43-1.28-1.18-1.78-1.9c-0.16-0.24-0.28-0.5-0.41-0.76c-0.68-1.32-1.36-2.64-2.04-3.96
		c-0.04-0.08-0.07-0.18-0.18-0.23c-0.28,0.37-0.46,0.8-0.67,1.2c-0.63,1.18-1.23,2.38-1.89,3.55c-0.28,0.5-0.65,0.94-0.99,1.41
		c-0.05,0.06-0.12,0.11-0.18,0.15c-0.19,0.14-0.4,0.27-0.58,0.43c-0.4,0.36-0.89,0.48-1.39,0.59c-0.23,0.05-0.47,0.09-0.7,0.16
		c-0.4,0.14-0.81,0.16-1.23,0.16c-6.34,0-12.69,0-19.03,0c-0.4,0-0.79-0.04-1.18-0.16c-0.43-0.13-0.86-0.23-1.3-0.32
		c-0.16-0.03-0.3-0.11-0.43-0.19c-0.05-0.03-0.1-0.08-0.15-0.12c-0.69-0.39-1.16-0.98-1.6-1.61c-0.2-0.29-0.27-0.61-0.35-0.93
		c-0.02-0.06-0.04-0.12-0.07-0.18c0-0.01-0.08,0-0.08,0.01c-0.05,0.17-0.12,0.33-0.14,0.5c-0.03,0.22-0.11,0.4-0.25,0.56
		c-0.01,0.01-0.02,0.03-0.03,0.04c-0.72,1.01-0.72,1.01-1.71,1.71c-0.16,0.11-0.33,0.18-0.52,0.22c-0.53,0.12-1.05,0.26-1.58,0.4
		c-0.23,0.06-0.47,0.07-0.71,0.07c-1.65,0-3.29,0-4.94,0c-4.55,0-9.11,0-13.66,0c-0.39,0-0.76-0.04-1.13-0.15
		c-0.43-0.13-0.87-0.22-1.3-0.31c-0.18-0.04-0.33-0.1-0.48-0.21c-0.31-0.22-0.62-0.45-0.93-0.67c-0.04-0.03-0.08-0.05-0.11-0.09
		c-0.3-0.41-0.63-0.81-0.88-1.25c-0.15-0.25-0.17-0.58-0.24-0.87c-0.02-0.06-0.01-0.13-0.03-0.19c-0.26-0.79-0.27-1.59-0.27-2.41
		c0.01-10.84,0-21.67,0-32.51c0-0.78,0.09-0.69-0.68-0.69c-0.34,0-0.67-0.03-0.99-0.11c-0.51-0.13-1.02-0.24-1.54-0.37
		c-0.19-0.04-0.37-0.11-0.52-0.23c-0.07-0.06-0.15-0.11-0.24-0.16c-0.74-0.41-1.19-1.09-1.65-1.76c-0.05-0.08-0.09-0.17-0.11-0.26
		c-0.13-0.53-0.26-1.05-0.37-1.58c-0.04-0.2-0.05-0.41-0.05-0.62c0-4.08,0-8.15,0-12.23c0-0.26,0.03-0.51,0.09-0.76
		c0.12-0.46,0.22-0.93,0.32-1.4c0.03-0.14,0.09-0.27,0.18-0.39c0.21-0.3,0.43-0.6,0.64-0.9c0.1-0.14,0.23-0.26,0.37-0.37
		c0.22-0.16,0.44-0.32,0.66-0.48c0.24-0.18,0.49-0.32,0.81-0.38c0.53-0.1,1.06-0.24,1.58-0.37c0.16-0.04,0.31-0.05,0.47-0.05
		c0.16,0,0.32,0,0.48,0c0.16-0.01,0.33,0.05,0.47-0.04c0.15-0.1,0.08-0.3,0.1-0.45c0.12-0.93,0.26-1.86,0.47-2.78
		c0.05-0.23,0.11-0.47,0.17-0.7c0.22-0.85,0.39-1.71,0.64-2.55c0.47-1.57,1.16-3.04,2.11-4.38c0.29-0.4,0.58-0.8,0.87-1.2
		c0.69-0.93,1.47-1.76,2.39-2.47c0.92-0.72,1.86-1.4,2.87-2c0.86-0.5,1.76-0.9,2.69-1.24c1.05-0.38,2.14-0.63,3.22-0.89
		c0.93-0.22,1.86-0.46,2.8-0.61c0.68-0.11,1.35-0.22,2.04-0.27c0.67-0.04,1.33-0.11,2-0.17c0.02,0,0.03,0,0.05-0.01
		c0.72-0.02,1.43-0.07,2.15-0.07c2.43-0.01,4.86,0,7.29-0.01c0.29,0,0.57,0.03,0.85,0.1c0.53,0.13,1.06,0.25,1.58,0.37
		c0.2,0.05,0.38,0.14,0.56,0.25c0.74,0.45,1.32,1.04,1.78,1.77c0.11,0.18,0.2,0.36,0.25,0.56c0.12,0.5,0.23,0.99,0.35,1.49
		c0.06,0.24,0.07,0.47,0.07,0.71c0,2.91,0,5.82,0,8.73c0,1.36,0,2.72,0,4.08c0,0.31-0.03,0.6-0.12,0.9
		c-0.06,0.21-0.11,0.43-0.16,0.65c-0.03,0.13,0.03,0.2,0.18,0.21c0.14,0.01,0.29,0,0.43,0c5.05,0,10.1,0,15.15-0.01
		c0.63,0,1.24,0.06,1.84,0.21c0.38,0.1,0.77,0.19,1.16,0.27c0.1,0.02,0.18,0.06,0.26,0.11c0.32,0.23,0.65,0.46,0.97,0.7
		c0.17,0.12,0.3,0.29,0.42,0.45c0.53,0.7,0.97,1.46,1.37,2.24c0.5,0.98,1.05,1.94,1.57,2.91c0.17,0.31,0.32,0.62,0.48,0.92
		c0.16,0.01,0.17-0.1,0.21-0.17c0.82-1.51,1.66-3.02,2.47-4.54c0.3-0.57,0.72-1.06,1.07-1.58c0.03-0.05,0.09-0.09,0.14-0.13
		c0.36-0.26,0.72-0.53,1.09-0.79c0.06-0.04,0.14-0.08,0.21-0.1c0.57-0.14,1.15-0.27,1.72-0.4c0.27-0.06,0.53-0.09,0.81-0.09
		c6.36,0,12.72,0,19.08,0c0.27,0,0.54,0.02,0.81,0.09c0.56,0.14,1.11,0.27,1.67,0.4c0.11,0.03,0.21,0.08,0.3,0.14
		c0.3,0.21,0.6,0.43,0.9,0.64c0.18,0.13,0.34,0.29,0.47,0.48c0.05,0.08,0.1,0.17,0.16,0.24c0.46,0.48,0.64,1.09,0.76,1.72
		c0.05,0.25,0.1,0.5,0.18,0.74c0.09,0.27,0.1,0.52,0.01,0.8c-0.04,0.12-0.16,0.3-0.02,0.38c0.1,0.06,0.21-0.11,0.3-0.19
		c0.76-0.66,1.59-1.23,2.41-1.82c1.02-0.73,2.1-1.34,3.23-1.86c1.47-0.67,2.99-1.19,4.56-1.57c1.02-0.24,2.04-0.5,3.07-0.73
		c0.96-0.22,1.94-0.37,2.92-0.5c1.07-0.15,2.15-0.24,3.24-0.31c0.73-0.05,1.47-0.03,2.2-0.08c0.67-0.05,1.34-0.08,2.01-0.04
		c0.89,0.04,1.79,0.02,2.68,0.08c0.56,0.04,1.11,0.05,1.67,0.1c1.16,0.12,2.32,0.21,3.46,0.41c0.6,0.1,1.2,0.17,1.79,0.3
		c0.75,0.16,1.49,0.33,2.24,0.5c1.1,0.25,2.21,0.51,3.28,0.86c1.28,0.41,2.51,0.93,3.7,1.57c0.89,0.47,1.76,0.98,2.58,1.56
		c0.96,0.68,1.94,1.36,2.82,2.14c0.82,0.72,1.54,1.53,2.19,2.41c0.29,0.4,0.57,0.81,0.86,1.21c0.77,1.06,1.31,2.22,1.72,3.46
		c0.23,0.68,0.4,1.38,0.56,2.08c0.19,0.79,0.38,1.58,0.55,2.38c0.16,0.76,0.29,1.53,0.36,2.31c0.07,0.79,0.17,1.58,0.24,2.38
		c0.03,0.41,0.03,0.83,0.03,1.25c0,9.12,0,18.25,0,27.37c0,0.22-0.08,0.47,0.05,0.66c0.11,0.16,0.32,0.26,0.48,0.39
		c0.17,0.12,0.32,0.26,0.44,0.43c0.19,0.27,0.39,0.54,0.59,0.82c0.08,0.12,0.15,0.23,0.18,0.38c0.14,0.62,0.3,1.24,0.44,1.86
		c0.03,0.11,0.02,0.22,0.03,0.33c0.04,0.79-0.03,1.56-0.26,2.32c-0.07,0.21-0.12,0.43-0.15,0.65c-0.05,0.29-0.18,0.54-0.36,0.77
		c-0.06,0.08-0.12,0.15-0.17,0.23c-0.27,0.46-0.68,0.78-1.1,1.12c-0.44,0.36-0.94,0.51-1.47,0.63c-0.09,0.02-0.19,0.02-0.28,0.05
		c-0.67,0.24-1.37,0.27-2.08,0.26c-6.23-0.01-12.47-0.01-18.7,0c-0.42,0-0.82-0.04-1.23-0.16c-0.43-0.13-0.87-0.22-1.3-0.32
		c-0.09-0.02-0.18-0.04-0.27-0.1c-0.43-0.32-0.91-0.59-1.29-0.99c-0.06-0.07-0.13-0.08-0.21-0.04c-0.18,0.1-0.37,0.19-0.55,0.3
		c-0.75,0.43-1.55,0.75-2.36,1.03c-1.06,0.37-2.15,0.6-3.23,0.86c-0.75,0.18-1.49,0.36-2.24,0.48c-0.41,0.06-0.82,0.14-1.23,0.18
		c-0.54,0.04-1.08,0.11-1.62,0.16c-0.22,0.02-0.45,0.03-0.67,0.02c-0.78-0.02-1.56,0.14-2.34,0.07c-1.05-0.09-2.1-0.05-3.15-0.19
		c-0.96-0.13-1.93-0.27-2.87-0.49c-1.13-0.27-2.27-0.54-3.38-0.86c-0.86-0.24-1.69-0.56-2.5-0.95c-0.79-0.38-1.56-0.8-2.28-1.3
		C105.27,102.1,105.21,102.08,105.13,102.05z M99.63,58.88c0.04-0.01,0.06-0.04,0.03-0.07c-0.02-0.02-0.05,0-0.06,0.04
		c-0.05,0.02-0.08,0.05-0.08,0.11c-0.05,0.08-0.11,0.15-0.16,0.24c-1.02,1.64-2.03,3.28-3.06,4.92c-1.58,2.53-3.17,5.06-4.75,7.58
		c-0.32,0.51-0.63,1.03-0.96,1.54c-0.11,0.17-0.11,0.31,0,0.48c0.38,0.59,0.74,1.19,1.11,1.79c0.86,1.38,1.72,2.76,2.58,4.14
		c0.66,1.06,1.31,2.11,1.97,3.17c0.05,0.07,0.06,0.18,0.18,0.19c0.08-0.2,0.11-0.4,0.13-0.61c0.01-0.13,0.03-0.25,0.06-0.38
		c0.23-1.03,0.46-2.05,0.71-3.08c0.29-1.21,0.74-2.37,1.35-3.46c0.33-0.59,0.74-1.12,1.11-1.67c0.41-0.61,0.86-1.19,1.35-1.74
		c0.48-0.54,1.02-1.01,1.59-1.45c0.08-0.06,0.2-0.11,0.2-0.24c-0.12-0.1-0.27-0.1-0.41-0.13c-0.42-0.1-0.83-0.21-1.25-0.31
		c-0.44-0.31-0.9-0.61-1.31-0.96c-0.04-0.03-0.06-0.07-0.09-0.11c-0.22-0.31-0.45-0.62-0.67-0.93c-0.07-0.1-0.13-0.22-0.16-0.34
		c-0.13-0.56-0.26-1.12-0.39-1.67c-0.07-0.27-0.08-0.53-0.05-0.81c0.05-0.46,0.1-0.92,0.13-1.38c0.04-0.62,0.14-1.24,0.25-1.85
		c0.16-0.86,0.35-1.72,0.58-2.56c0.03-0.12,0.04-0.25,0.05-0.38C99.63,58.93,99.63,58.9,99.63,58.88z M155.64,80.15
		c0,0-0.01,0-0.01,0c0-4.55,0-9.11,0-13.66c0-0.93-0.06-1.85-0.13-2.77c-0.07-0.94-0.19-1.87-0.35-2.8
		c-0.18-1.04-0.39-2.07-0.73-3.07c-0.86-2.54-2.35-4.63-4.45-6.28c-1.53-1.2-3.18-2.19-4.96-2.98c-2.26-1.01-4.64-1.6-7.08-1.99
		c-0.85-0.14-1.71-0.24-2.56-0.33c-1.06-0.12-2.13-0.17-3.2-0.23c-0.83-0.05-1.66-0.04-2.49-0.05c-1.79-0.01-3.57,0.03-5.36,0.19
		c-0.97,0.09-1.94,0.19-2.9,0.34c-1.29,0.2-2.57,0.47-3.83,0.82c-1.85,0.52-3.63,1.21-5.31,2.16c-1.86,1.06-3.5,2.4-4.84,4.08
		c-1.21,1.51-2.12,3.19-2.75,5.01c-0.39,1.12-0.68,2.26-0.89,3.42c-0.18,1.02-0.32,2.05-0.35,3.09c-0.02,0.61-0.05,0.56,0.56,0.56
		c5.77,0,11.54,0,17.31,0c0.08,0,0.16,0,0.24,0c0.3-0.01,0.35-0.05,0.4-0.36c0.04-0.22,0.07-0.44,0.11-0.66
		c0.19-0.93,0.46-1.82,0.93-2.65c0.69-1.22,1.7-2.05,3.02-2.52c0.97-0.35,1.98-0.47,3.01-0.51c0.64-0.02,1.28-0.01,1.91,0.07
		c0.46,0.06,0.92,0.11,1.37,0.22c0.69,0.17,1.34,0.42,1.93,0.81c0.42,0.28,0.76,0.63,1.03,1.05c0.38,0.6,0.53,1.25,0.54,1.96
		c0.01,0.63-0.2,1.15-0.63,1.6c-0.32,0.34-0.7,0.61-1.1,0.84c-0.66,0.39-1.38,0.67-2.1,0.93c-1.96,0.7-4,1.08-6.05,1.42
		c-1.09,0.18-2.18,0.33-3.26,0.51c-1.16,0.2-2.32,0.42-3.48,0.64c-2.26,0.43-4.48,1-6.66,1.76c-1.57,0.54-3.1,1.19-4.54,2.03
		c-1.41,0.81-2.67,1.8-3.73,3.04c-1.2,1.41-2.01,3.03-2.49,4.81c-0.41,1.48-0.58,3-0.59,4.54c0,0.61-0.01,1.21,0.07,1.82
		c0.06,0.46,0.09,0.92,0.17,1.38c0.17,1.01,0.43,1.99,0.8,2.95c0.6,1.57,1.48,2.97,2.61,4.2c0.93,1.01,1.99,1.89,3.16,2.62
		c1.28,0.8,2.65,1.4,4.09,1.85c0.81,0.25,1.63,0.45,2.46,0.61c1.24,0.24,2.49,0.37,3.75,0.43c0.29,0.01,0.57,0.02,0.86,0.03
		c1.41,0.01,2.81,0,4.21-0.14c0.33-0.03,0.67-0.05,1-0.1c1.25-0.19,2.49-0.41,3.7-0.78c1.21-0.37,2.37-0.86,3.46-1.5
		c1.91-1.11,3.53-2.58,4.95-4.26c0.07-0.09,0.14-0.17,0.22-0.25c0.04-0.05,0.09-0.09,0.16-0.06c0.05,0.02,0.06,0.07,0.06,0.12
		c0.02,0.29,0.03,0.57,0.07,0.86c0.11,1.01,0.23,2.03,0.34,3.04c0.05,0.44,0.09,0.89,0.15,1.33c0.04,0.25,0.07,0.26,0.31,0.27
		c0.11,0,0.22,0,0.34,0c6.38,0,12.75,0,19.13,0c0.11,0,0.22,0,0.34,0c0.22-0.01,0.28-0.06,0.28-0.29c0.01-0.19-0.01-0.38-0.01-0.57
		c0.01-0.48,0.14-0.57-0.53-0.94c-0.06-0.03-0.11-0.06-0.16-0.1c-0.5-0.34-0.89-0.77-1.15-1.32c-0.25-0.52-0.34-1.06-0.34-1.62
		C155.64,89.9,155.64,85.02,155.64,80.15z M90.81,99.61c3.24,0,6.49,0,9.73,0c0.14,0,0.31,0.06,0.4-0.07
		c0.11-0.16-0.04-0.3-0.12-0.43c-0.66-1.07-1.33-2.15-1.99-3.22c-1.3-2.09-2.6-4.18-3.9-6.26c-2.02-3.24-4.03-6.48-6.05-9.72
		c-1.23-1.98-2.47-3.96-3.7-5.94c-0.31-0.5-0.31-0.57,0.01-1.08c0.85-1.35,1.7-2.7,2.55-4.06c1.92-3.07,3.84-6.15,5.77-9.22
		c1.08-1.73,2.17-3.46,3.26-5.2c1.32-2.11,2.64-4.23,3.96-6.34c0.1-0.16,0.25-0.3,0.25-0.5c-0.17-0.18-0.39-0.09-0.58-0.09
		c-6.26-0.01-12.53-0.01-18.79,0c-0.72,0-0.57-0.14-0.94,0.56c-0.67,1.25-1.36,2.49-2.04,3.74c-0.57,1.04-1.14,2.07-1.71,3.1
		c-0.8,1.45-1.6,2.91-2.41,4.36c-0.2,0.36-0.4,0.73-0.6,1.09c-0.06,0.11-0.16,0.11-0.22,0.02c-0.06-0.09-0.11-0.19-0.16-0.29
		c-0.75-1.39-1.51-2.78-2.26-4.17c-1.32-2.46-2.64-4.93-3.96-7.39c-0.13-0.24-0.26-0.48-0.39-0.71c-0.12-0.21-0.29-0.33-0.55-0.3
		c-0.09,0.01-0.19,0-0.29,0c-6.33,0-12.66,0-18.99,0c-0.13,0-0.26,0-0.38,0c-0.03,0-0.07,0-0.09,0.01
		c-0.05,0.02-0.07,0.06-0.05,0.11c0.03,0.07,0.08,0.14,0.12,0.21c1.12,1.77,2.24,3.54,3.36,5.3c1.12,1.77,2.25,3.53,3.37,5.29
		c0.95,1.5,1.9,2.99,2.85,4.49c0.99,1.56,1.99,3.12,2.99,4.68c0.51,0.79,1,1.59,1.51,2.39c0.69,1.09,1.39,2.18,2.08,3.27
		c0.11,0.17,0.12,0.32,0.01,0.49c-0.05,0.08-0.1,0.16-0.15,0.24c-0.91,1.43-1.81,2.86-2.72,4.29c-0.96,1.51-1.91,3.03-2.86,4.54
		c-1.17,1.85-2.34,3.69-3.51,5.54c-1.03,1.63-2.06,3.27-3.09,4.9c-1.03,1.63-2.07,3.26-3.11,4.89c-0.27,0.43-0.54,0.87-0.81,1.3
		c-0.08,0.12-0.04,0.18,0.09,0.19c0.13,0,0.26,0,0.38,0c6.34,0,12.69,0,19.03,0c0.11,0,0.22-0.01,0.34,0
		c0.16,0.01,0.28-0.06,0.37-0.18c0.07-0.09,0.13-0.18,0.18-0.28c0.29-0.55,0.58-1.1,0.87-1.65c1.42-2.68,2.84-5.36,4.25-8.05
		c0.5-0.95,0.99-1.89,1.49-2.84c0.04-0.07,0.07-0.16,0.15-0.17c0.1-0.01,0.12,0.09,0.15,0.16c0.12,0.23,0.22,0.46,0.34,0.69
		c0.5,0.96,1.01,1.92,1.51,2.88c0.48,0.92,0.94,1.85,1.42,2.77c0.51,0.99,1.03,1.98,1.54,2.98c0.57,1.09,1.13,2.18,1.7,3.27
		c0.26,0.5,0.17,0.43,0.73,0.43C84.35,99.62,87.58,99.62,90.81,99.61z M17.74,79.91c0,6.34,0,12.69,0,19.03c0,0.14,0,0.29,0,0.43
		c0.01,0.19,0.04,0.23,0.22,0.24c0.1,0.01,0.19,0,0.29,0c6.18,0,12.37,0,18.55,0c0.11,0,0.22,0,0.34-0.01
		c0.15-0.01,0.24-0.09,0.25-0.24c0.01-0.17,0.01-0.35,0.01-0.53c0-12.67,0-25.34,0-38.01c0-0.64-0.01-0.61,0.59-0.61
		c2.25,0,4.51,0,6.76,0c0.13,0,0.26,0,0.38,0c0.21-0.01,0.28-0.09,0.29-0.3c0-0.05,0-0.1,0-0.14c0-3.9,0-7.8,0-11.7
		c0-0.58,0.04-0.61-0.6-0.61c-2.3,0.01-4.6,0-6.9,0c-0.13,0-0.26,0-0.38,0c-0.2-0.01-0.26-0.06-0.26-0.26c0-0.5,0-0.99,0.01-1.49
		c0.02-0.71,0.2-1.39,0.5-2.03c0.29-0.62,0.72-1.12,1.3-1.5c0.5-0.33,1.06-0.52,1.63-0.67c0.73-0.19,1.48-0.25,2.23-0.27
		c0.62-0.02,1.24-0.02,1.87,0.05c0.57,0.07,0.6,0.01,0.61-0.55c0-0.1,0-0.19,0-0.29c0-3.95,0-7.89,0-11.84c0-0.19,0-0.38,0-0.58
		c0-0.31-0.04-0.35-0.37-0.35c-0.06,0-0.13,0-0.19,0c-2.01,0-4.03,0-6.04,0c-1.37,0-2.75-0.03-4.12,0.07
		c-0.72,0.06-1.43,0.11-2.14,0.2c-0.97,0.12-1.93,0.28-2.87,0.5c-1.69,0.39-3.31,0.96-4.83,1.79c-1.35,0.73-2.53,1.68-3.54,2.83
		c-1.14,1.3-1.94,2.8-2.53,4.42c-0.56,1.54-0.85,3.14-1.03,4.76c-0.12,1.05-0.15,2.1-0.13,3.16c0.01,0.49-0.03,0.99,0.06,1.48
		c0.11,0.62,0.05,0.56-0.48,0.56c-1.69,0-3.39,0-5.08,0c-0.58,0-0.56-0.04-0.56,0.54c0,3.9,0,7.8,0,11.7c0,0.56-0.03,0.52,0.52,0.52
		c1.69,0,3.39,0,5.08,0c0.13,0,0.26,0,0.38,0.01c0.11,0,0.18,0.07,0.18,0.18c0.01,0.16,0.01,0.32,0.01,0.48
		C17.74,67.22,17.74,73.57,17.74,79.91z M42.2,97.3c0.1-0.14,0.17-0.22,0.23-0.32c0.53-0.84,1.06-1.67,1.59-2.51
		c1.61-2.55,3.22-5.1,4.84-7.65c0.81-1.28,1.62-2.56,2.44-3.84c1.76-2.78,3.51-5.56,5.27-8.34c0.2-0.32,0.4-0.65,0.61-0.98
		c0.08-0.12,0.09-0.23,0.01-0.36c-0.05-0.08-0.1-0.16-0.15-0.24c-0.25-0.39-0.5-0.78-0.75-1.17c-0.82-1.3-1.63-2.59-2.45-3.89
		c-0.71-1.12-1.43-2.23-2.14-3.35c-0.58-0.92-1.17-1.83-1.75-2.75c-0.04-0.06-0.07-0.14-0.19-0.1c-0.02,0.39-0.25,0.7-0.46,1.02
		c-0.38,0.57-0.85,1.02-1.42,1.4c-0.28,0.19-0.57,0.34-0.91,0.4c-0.28,0.05-0.56,0.14-0.84,0.21c-0.59,0.15-1.18,0.27-1.79,0.23
		c-0.54-0.03-1.09-0.01-1.63-0.01c-0.58,0-0.55-0.03-0.55,0.54c0,10.4,0,20.8,0,31.2C42.15,96.95,42.12,97.09,42.2,97.3z"/>
	<path class="st0" d="M99.6,58.85c0.01-0.04,0.04-0.06,0.06-0.04c0.02,0.02,0.01,0.05-0.03,0.07C99.63,58.88,99.6,58.85,99.6,58.85z
		"/>
	<path class="st0" d="M99.62,58.95c-0.03,0-0.06,0-0.1,0c0-0.05,0.03-0.09,0.08-0.11c0,0,0.03,0.02,0.03,0.02
		C99.63,58.9,99.63,58.93,99.62,58.95z"/>
	<path class="st0" d="M127.02,88.48c-1.18,0.05-2.33-0.11-3.44-0.49c-0.84-0.28-1.6-0.73-2.25-1.33c-1.58-1.47-1.44-3.93,0.28-5.23
		c0.5-0.38,1.06-0.66,1.64-0.89c1.05-0.43,2.14-0.75,3.23-1.06c1.52-0.43,3.07-0.75,4.6-1.14c1.24-0.32,2.45-0.73,3.61-1.28
		c0.61-0.29,1.19-0.62,1.73-1.03c0.14-0.1,0.2-0.08,0.22,0.08c0.12,1.07,0.11,2.13,0.03,3.2c-0.06,0.77-0.14,1.52-0.32,2.27
		c-0.31,1.34-0.83,2.58-1.67,3.68c-0.86,1.12-1.94,1.93-3.24,2.46c-0.88,0.36-1.79,0.57-2.73,0.69c-0.21,0.02-0.41,0.07-0.62,0.08
		C127.73,88.49,127.38,88.48,127.02,88.48z"/>
</g>
<g>
	<path class="st1" d="M136.81,93.98c-0.16,0.06-0.23,0.21-0.33,0.33c-1.07,1.28-2.27,2.43-3.62,3.4c-1.59,1.14-3.32,1.97-5.2,2.48
		c-1.48,0.4-2.99,0.65-4.52,0.78c-1.12,0.09-2.23,0.14-3.35,0.14c-1.26,0-2.52-0.07-3.78-0.23c-1.48-0.19-2.93-0.5-4.34-0.97
		c-1.86-0.63-3.58-1.52-5.12-2.75c-1.87-1.49-3.32-3.31-4.23-5.53c-0.5-1.2-0.81-2.45-0.98-3.74c-0.2-1.48-0.21-2.96-0.08-4.45
		c0.15-1.63,0.52-3.21,1.19-4.72c0.84-1.88,2.08-3.43,3.7-4.7c1.28-1,2.7-1.76,4.19-2.4c2-0.87,4.07-1.5,6.18-2.02
		c2.11-0.52,4.24-0.92,6.39-1.26c1.69-0.27,3.38-0.51,5.05-0.85c1.71-0.34,3.4-0.75,5.01-1.43c0.69-0.29,1.36-0.64,1.94-1.13
		c0.22-0.19,0.41-0.4,0.58-0.64c0.2-0.29,0.32-0.62,0.34-0.98c0.05-1.49-0.53-2.63-1.82-3.4c-0.68-0.4-1.43-0.63-2.21-0.76
		c-0.85-0.14-1.71-0.21-2.58-0.18c-1.1,0.04-2.19,0.16-3.24,0.55c-1.2,0.44-2.14,1.18-2.82,2.27c-0.55,0.9-0.86,1.88-1.07,2.91
		c-0.05,0.25-0.08,0.5-0.13,0.75c-0.03,0.17-0.1,0.21-0.26,0.22c-0.11,0.01-0.22,0-0.34,0c-5.8,0-11.6,0-17.41,0
		c-0.6,0-0.53,0.04-0.5-0.54c0.08-1.76,0.35-3.49,0.81-5.19c0.84-3.05,2.31-5.74,4.62-7.93c1.16-1.11,2.47-2.02,3.89-2.78
		c1.96-1.04,4.04-1.75,6.2-2.25c1.39-0.32,2.79-0.54,4.2-0.7c1.54-0.17,3.09-0.25,4.64-0.3c1.57-0.05,3.13-0.01,4.7,0.06
		c2.67,0.12,5.31,0.43,7.92,1.02c3.41,0.78,6.53,2.18,9.32,4.3c2.72,2.07,4.43,4.78,5.15,8.11c0.35,1.61,0.57,3.24,0.68,4.88
		c0.08,1.23,0.1,2.46,0.1,3.69c0,8.82,0,17.65,0,26.47c0,0.42,0.01,0.83,0.11,1.24c0.23,0.9,0.75,1.58,1.54,2.05
		c0.57,0.33,0.57,0.3,0.54,0.98c-0.01,0.19,0.01,0.38,0,0.58c-0.01,0.2-0.06,0.26-0.26,0.26c-0.11,0-0.22,0-0.34,0
		c-6.41,0-12.82,0-19.23,0c-0.58,0-0.56,0.11-0.63-0.55c-0.15-1.35-0.3-2.7-0.45-4.05c-0.02-0.22-0.03-0.45-0.05-0.67
		C136.9,94.22,136.92,94.09,136.81,93.98z M136.6,75.98c-0.02,0-0.03-0.02-0.05-0.01c-0.06,0.03-0.12,0.05-0.17,0.09
		c-0.71,0.53-1.48,0.94-2.3,1.28c-1.21,0.51-2.46,0.89-3.73,1.19c-1.52,0.36-3.05,0.7-4.55,1.15c-1.04,0.31-2.07,0.64-3.06,1.09
		c-0.51,0.24-0.99,0.53-1.4,0.91c-0.7,0.65-1.07,1.46-1.09,2.42c-0.02,1.09,0.42,1.98,1.24,2.69c0.64,0.55,1.36,0.95,2.15,1.22
		c0.76,0.26,1.55,0.4,2.34,0.46c1.56,0.12,3.09-0.01,4.6-0.46c1.69-0.5,3.1-1.41,4.16-2.84c0.9-1.22,1.43-2.59,1.71-4.07
		c0.26-1.37,0.31-2.76,0.27-4.15c-0.01-0.3-0.05-0.6-0.08-0.91C136.64,76.03,136.61,76,136.6,75.98z"/>
	<path class="st1" d="M46.54,99.62c-0.01-0.19,0.08-0.27,0.14-0.36c1.4-2.21,2.8-4.43,4.2-6.64c1.55-2.46,3.1-4.92,4.66-7.38
		c1.73-2.74,3.47-5.48,5.2-8.22c0.67-1.05,1.33-2.11,2-3.16c0.03-0.04,0.05-0.08,0.08-0.12c0.14-0.17,0.13-0.34,0-0.52
		c-0.28-0.41-0.53-0.83-0.8-1.25c-1.22-1.92-2.43-3.83-3.65-5.74c-1.59-2.49-3.18-4.98-4.76-7.48c-1.39-2.18-2.77-4.37-4.16-6.55
		c-0.9-1.42-1.8-2.83-2.7-4.25c-0.05-0.08-0.1-0.16-0.15-0.24c-0.11-0.18-0.09-0.23,0.11-0.24c0.11-0.01,0.22,0,0.34,0
		c6.35,0,12.69,0,19.04,0c0.58,0,0.62-0.13,1,0.59c2.12,3.95,4.25,7.91,6.38,11.86c0.09,0.17,0.16,0.35,0.31,0.5
		c0.14-0.05,0.17-0.18,0.23-0.28c0.69-1.24,1.38-2.49,2.06-3.73c1.07-1.94,2.14-3.89,3.21-5.83c0.51-0.92,1-1.85,1.5-2.78
		c0.02-0.04,0.05-0.08,0.07-0.13c0.06-0.12,0.15-0.19,0.3-0.19c0.14,0.01,0.29-0.01,0.43-0.01c6.35,0,12.69,0,19.04,0
		c0.11,0,0.22,0,0.33,0.01c0.08,0.01,0.09,0.08,0.07,0.14c-0.03,0.07-0.07,0.14-0.12,0.21c-5.16,8.25-10.32,16.5-15.48,24.75
		c-0.13,0.2-0.25,0.41-0.37,0.61c-0.1,0.16-0.1,0.33-0.01,0.5c0.07,0.12,0.14,0.25,0.22,0.37c3.27,5.25,6.54,10.5,9.8,15.75
		c1.92,3.08,3.83,6.16,5.75,9.24c0.08,0.13,0.16,0.28,0.23,0.42c0.03,0.06-0.01,0.14-0.08,0.14c-0.14,0.02-0.29,0.02-0.43,0.02
		c-1.55,0-3.1,0-4.65,0c-4.91,0-9.81,0-14.72,0c-0.6,0-0.49,0.09-0.77-0.45c-1.4-2.69-2.79-5.39-4.18-8.09
		c-0.73-1.42-1.46-2.84-2.19-4.26c-0.07-0.14-0.15-0.27-0.23-0.4c-0.16,0.07-0.18,0.21-0.24,0.32c-1.15,2.17-2.3,4.35-3.45,6.52
		c-1.03,1.95-2.06,3.9-3.09,5.85c-0.01,0.01-0.02,0.03-0.02,0.04c-0.14,0.35-0.38,0.48-0.78,0.48c-6.41-0.01-12.82-0.01-19.23-0.01
		C46.84,99.62,46.7,99.62,46.54,99.62z"/>
	<path class="st1" d="M17.72,47.41c0-0.09,0.01-0.17,0-0.25c-0.09-0.46-0.08-0.92-0.09-1.39c-0.01-1.17,0-2.33,0.12-3.5
		c0.25-2.35,0.77-4.63,1.88-6.74c0.96-1.83,2.27-3.35,3.98-4.53c1.26-0.87,2.63-1.51,4.07-2c0.91-0.31,1.84-0.55,2.77-0.73
		c0.89-0.18,1.79-0.3,2.7-0.4c1.69-0.19,3.38-0.2,5.07-0.2c2.22,0,4.44,0,6.67,0c0.58,0,0.55-0.02,0.55,0.55c0,4.14,0,8.28,0,12.42
		c0,0.73-0.03,0.67-0.65,0.65c-0.29-0.01-0.57-0.04-0.86-0.05c-0.88-0.02-1.76,0.02-2.63,0.16c-0.51,0.08-1,0.21-1.47,0.4
		c-1.05,0.43-1.77,1.17-2.17,2.23c-0.19,0.51-0.32,1.04-0.35,1.59c-0.03,0.49-0.03,0.99-0.03,1.49c0,0.3,0.03,0.33,0.32,0.34
		c0.19,0.01,0.38,0,0.58,0c2.22,0,4.44,0,6.67,0c0.63,0,0.6,0,0.6,0.61c0,3.87,0,7.74,0,11.6c0,0.58-0.04,0.55-0.56,0.55
		c-2.29,0-4.57,0-6.86,0c-0.6,0-0.58-0.06-0.58,0.56c0,5.69,0,11.38,0,17.07c0,7,0,14,0,21c0,0.18,0,0.35-0.02,0.53
		c-0.02,0.15-0.1,0.23-0.25,0.24c-0.11,0.01-0.22,0-0.34,0c-6.19,0-12.37,0-18.56,0c-0.59,0-0.54,0.05-0.54-0.55
		c0-12.72,0-25.45,0-38.17c0-0.22,0.1-0.48-0.08-0.64c-0.15-0.13-0.4-0.05-0.6-0.05c-1.61,0-3.23,0-4.84,0c-0.1,0-0.19,0-0.29,0
		c-0.36-0.01-0.37-0.01-0.37-0.37c0-1.82,0-3.64,0-5.47c0-2.16,0-4.32,0-6.47c0-0.44-0.01-0.45,0.45-0.45c1.73,0,3.45,0,5.18,0
		C17.36,47.45,17.54,47.47,17.72,47.41z"/>
</g>
</svg>
